<?xml version="1.0" encoding="UTF-8"?>
<svg width="512" height="512" version="1.1" viewBox="0 0 135.47 135.47" xmlns="http://www.w3.org/2000/svg" xmlns:cc="http://creativecommons.org/ns#" xmlns:dc="http://purl.org/dc/elements/1.1/" xmlns:rdf="http://www.w3.org/1999/02/22-rdf-syntax-ns#">
 <metadata>
  <rdf:RDF>
   <cc:Work rdf:about="">
    <dc:format>image/svg+xml</dc:format>
    <dc:type rdf:resource="http://purl.org/dc/dcmitype/StillImage"/>
    <dc:title/>
   </cc:Work>
  </rdf:RDF>
 </metadata>
 <g transform="rotate(-90 67.733 67.732)">
  <path d="m67.733 0v67.733h67.733a67.733 67.733 0 0 0-67.733-67.733z" fill="#ff0" stop-color="#000000"/>
  <path transform="scale(.26458)" d="m256 0a256 256 0 0 0-256 256 256 256 0 0 0 256 256 256 256 0 0 0 256-256h-256zm256 256a256 256 0 0 0-4e-3 -1.3457 256 256 0 0 1 4e-3 1.3457zm-248.09-255.88a256 256 0 0 1 1.1523 0.039062 256 256 0 0 0-1.1523-0.039062zm12.09 0.66016a256 256 0 0 1 0.91797 0.074219 256 256 0 0 0-0.91797-0.074219zm6.6992 0.61328a256 256 0 0 1 1.1484 0.12305 256 256 0 0 0-1.1484-0.12305zm2.6738 0.29492a256 256 0 0 1 2.6719 0.32227 256 256 0 0 0-2.6719-0.32227zm6.6719 0.85938a256 256 0 0 1 1.332 0.19336 256 256 0 0 0-1.332-0.19336zm2.6621 0.39258a256 256 0 0 1 1.0371 0.16211 256 256 0 0 0-1.0371-0.16211zm3.9863 0.64258a256 256 0 0 1 1.3242 0.22656 256 256 0 0 0-1.3242-0.22656zm11.887 2.3008a256 256 0 0 1 1.1992 0.26367 256 256 0 0 0-1.1992-0.26367zm22.1 5.8672a256 256 0 0 1 1.2812 0.40625 256 256 0 0 0-1.2812-0.40625zm13.982 4.8379a256 256 0 0 1 1.2578 0.48047 256 256 0 0 0-1.2578-0.48047zm1.2578 0.48047a256 256 0 0 1 1.2344 0.47852 256 256 0 0 0-1.2344-0.47852zm24.561 10.963a256 256 0 0 1 0.95508 0.49024 256 256 0 0 0-0.95508-0.49024zm5.9492 3.1387a256 256 0 0 1 1.1797 0.64648 256 256 0 0 0-1.1797-0.64648zm3.5293 1.959a256 256 0 0 1 1.1562 0.65625 256 256 0 0 0-1.1562-0.65625zm2.3359 1.3359a256 256 0 0 1 1.8867 1.1035 256 256 0 0 0-1.8867-1.1035zm22.535 14.684a256 256 0 0 1 0.78515 0.57422 256 256 0 0 0-0.78515-0.57422zm8.5605 6.5215a256 256 0 0 1 0.68165 0.54492 256 256 0 0 0-0.68165-0.54492zm13.305 11.35a256 256 0 0 1 0.99024 0.91016 256 256 0 0 0-0.99024-0.91016zm11.566 11.26a256 256 0 0 1 0.76562 0.79688 256 256 0 0 0-0.76562-0.79688zm5.5117 5.8984a256 256 0 0 1 0.5664 0.62891 256 256 0 0 0-0.5664-0.62891zm4.4492 5.0449a256 256 0 0 1 0.57226 0.66992 256 256 0 0 0-0.57226-0.66992zm8.4922 10.434a256 256 0 0 1 0.5625 0.73046 256 256 0 0 0-0.5625-0.73046zm6.3926 8.6582a256 256 0 0 1 0.77344 1.1016 256 256 0 0 0-0.77344-1.1016zm1.541 2.207a256 256 0 0 1 0.76172 1.1074 256 256 0 0 0-0.76172-1.1074zm9.4394 14.719a256 256 0 0 1 0.33984 0.57422 256 256 0 0 0-0.33984-0.57422zm10.789 20.16a256 256 0 0 1 1.1504 2.4336 256 256 0 0 0-1.1504-2.4336zm1.1504 2.4336a256 256 0 0 1 0.56446 1.2207 256 256 0 0 0-0.56446-1.2207zm9.1797 22.4a256 256 0 0 1 0.32813 0.92969 256 256 0 0 0-0.32813-0.92969zm2.1699 6.3672a256 256 0 0 1 0.28516 0.88281 256 256 0 0 0-0.28516-0.88281zm2.002 6.4219a256 256 0 0 1 0.31054 1.0508 256 256 0 0 0-0.31054-1.0508zm3.4941 12.99a256 256 0 0 1 0.24218 1.0176 256 256 0 0 0-0.24218-1.0176zm1.4902 6.5605a256 256 0 0 1 0.27734 1.3164 256 256 0 0 0-0.27734-1.3164zm2.2461 11.898a256 256 0 0 1 0.21484 1.3281 256 256 0 0 0-0.21484-1.3281zm2.3691 18.682a256 256 0 0 1 0.11132 1.2695 256 256 0 0 0-0.11132-1.2695zm0.42382 5.3652a256 256 0 0 1 0.16993 2.6855 256 256 0 0 0-0.16993-2.6855zm0.3711 6.7168a256 256 0 0 1 0.0469 1.2109 256 256 0 0 0-0.0469-1.2109z" fill="#00b0f0" stop-color="#000000"/>
 </g>
</svg>
