<?xml version="1.0" encoding="UTF-8"?>
<svg width="512" height="512" version="1.1" viewBox="0 0 135.47 135.47" xmlns="http://www.w3.org/2000/svg" xmlns:cc="http://creativecommons.org/ns#" xmlns:dc="http://purl.org/dc/elements/1.1/" xmlns:rdf="http://www.w3.org/1999/02/22-rdf-syntax-ns#">
 <metadata>
  <rdf:RDF>
   <cc:Work rdf:about="">
    <dc:format>image/svg+xml</dc:format>
    <dc:type rdf:resource="http://purl.org/dc/dcmitype/StillImage"/>
    <dc:title/>
   </cc:Work>
  </rdf:RDF>
 </metadata>
 <g transform="translate(1.3812 -2.9658)">
  <path d="m66.354 2.9681v67.733h-67.733a67.733 67.733 0 0 1 67.733-67.733z" fill="#ff0" stop-color="#000000"/>
  <path d="m66.354 2.9686a67.732 67.732 0 0 1 67.732 67.732 67.732 67.732 0 0 1-67.732 67.732 67.732 67.732 0 0 1-67.732-67.732h67.732zm-67.732 67.732a67.732 67.732 0 0 1 0.0011-0.35605 67.732 67.732 0 0 0-0.0011 0.35605zm65.64-67.701a67.732 67.732 0 0 0-0.30488 0.0103 67.732 67.732 0 0 1 0.30488-0.0103zm-3.1988 0.17466a67.732 67.732 0 0 0-0.24288 0.0196 67.732 67.732 0 0 1 0.24288-0.0196zm-1.7725 0.16227a67.732 67.732 0 0 0-0.30384 0.0326 67.732 67.732 0 0 1 0.30384-0.0326zm-0.70743 0.078a67.732 67.732 0 0 0-0.70693 0.0853 67.732 67.732 0 0 1 0.70693-0.0853zm-1.7653 0.22737a67.732 67.732 0 0 0-0.35242 0.0512 67.732 67.732 0 0 1 0.35242-0.0512zm-0.70434 0.10387a67.732 67.732 0 0 0-0.2744 0.0429 67.732 67.732 0 0 1 0.2744-0.0429zm-1.0547 0.17004a67.732 67.732 0 0 0-0.35036 0.06 67.732 67.732 0 0 1 0.35036-0.06zm-3.1451 0.60875a67.732 67.732 0 0 0-0.31728 0.0698 67.732 67.732 0 0 1 0.31728-0.0698zm-5.8472 1.5523a67.732 67.732 0 0 0-0.33898 0.10749 67.732 67.732 0 0 1 0.33898-0.10749zm-3.6994 1.28a67.732 67.732 0 0 0-0.33279 0.12713 67.732 67.732 0 0 1 0.33279-0.12713zm-0.33279 0.12713a67.732 67.732 0 0 0-0.3266 0.1266 67.732 67.732 0 0 1 0.3266-0.1266zm-6.4983 2.9006a67.732 67.732 0 0 0-0.2527 0.12971 67.732 67.732 0 0 1 0.2527-0.12971zm-1.574 0.83044a67.732 67.732 0 0 0-0.31212 0.17104 67.732 67.732 0 0 1 0.31212-0.17104zm-0.93378 0.51831a67.732 67.732 0 0 0-0.30591 0.17363 67.732 67.732 0 0 1 0.30591-0.17363zm-0.61803 0.35345a67.732 67.732 0 0 0-0.49918 0.29196 67.732 67.732 0 0 1 0.49918-0.29196zm-5.9623 3.8851a67.732 67.732 0 0 0-0.20774 0.15193 67.732 67.732 0 0 1 0.20774-0.15193zm-2.2649 1.7255a67.732 67.732 0 0 0-0.18035 0.14418 67.732 67.732 0 0 1 0.18035-0.14418zm-3.5202 3.003a67.732 67.732 0 0 0-0.262 0.24081 67.732 67.732 0 0 1 0.262-0.24081zm-3.0601 2.9792a67.732 67.732 0 0 0-0.20257 0.21084 67.732 67.732 0 0 1 0.20257-0.21084zm-1.4583 1.5606a67.732 67.732 0 0 0-0.14986 0.1664 67.732 67.732 0 0 1 0.14986-0.1664zm-1.1772 1.3348a67.732 67.732 0 0 0-0.15141 0.17725 67.732 67.732 0 0 1 0.15141-0.17725zm-2.2469 2.7606a67.732 67.732 0 0 0-0.14883 0.19327 67.732 67.732 0 0 1 0.14883-0.19327zm-1.6914 2.2908a67.732 67.732 0 0 0-0.20464 0.29146 67.732 67.732 0 0 1 0.20464-0.29146zm-0.40772 0.58393a67.732 67.732 0 0 0-0.20154 0.29299 67.732 67.732 0 0 1 0.20154-0.29299zm-2.4975 3.8944a67.732 67.732 0 0 0-0.08991 0.15193 67.732 67.732 0 0 1 0.08991-0.15193zm-2.8546 5.3339a67.732 67.732 0 0 0-0.30437 0.64388 67.732 67.732 0 0 1 0.30437-0.64388zm-0.30437 0.64388a67.732 67.732 0 0 0-0.14934 0.32297 67.732 67.732 0 0 1 0.14934-0.32297zm-2.4288 5.9266a67.732 67.732 0 0 0-0.08682 0.24598 67.732 67.732 0 0 1 0.08682-0.24598zm-0.57411 1.6846a67.732 67.732 0 0 0-0.07545 0.23357 67.732 67.732 0 0 1 0.07545-0.23357zm-0.52969 1.6991a67.732 67.732 0 0 0-0.08216 0.27802 67.732 67.732 0 0 1 0.08216-0.27802zm-0.92447 3.4369a67.732 67.732 0 0 0-0.06408 0.26924 67.732 67.732 0 0 1 0.06408-0.26924zm-0.39428 1.7358a67.732 67.732 0 0 0-0.07338 0.34829 67.732 67.732 0 0 1 0.07338-0.34829zm-0.59427 3.148a67.732 67.732 0 0 0-0.05684 0.35139 67.732 67.732 0 0 1 0.05684-0.35139zm-0.62682 4.9429a67.732 67.732 0 0 0-0.02945 0.33589 67.732 67.732 0 0 1 0.02945-0.33589zm-0.11213 1.4195a67.732 67.732 0 0 0-0.04496 0.71052 67.732 67.732 0 0 1 0.04496-0.71052zm-0.09819 1.7771a67.732 67.732 0 0 0-0.01241 0.32038 67.732 67.732 0 0 1 0.01241-0.32038z" fill="#00b0f0" stop-color="#000000" stroke-width=".26458"/>
 </g>
</svg>
